<?xml version="1.0" encoding="iso-8859-1"?>
<!-- Generator: Adobe Illustrator 19.0.0, SVG Export Plug-In . SVG Version: 6.00 Build 0)  -->
<svg version="1.1" id="Capa_1" xmlns="http://www.w3.org/2000/svg" xmlns:xlink="http://www.w3.org/1999/xlink" x="0px" y="0px"
	 viewBox="0 0 512 512" style="enable-background:new 0 0 512 512;stroke:white; fill:white; " xml:space="preserve">
<g>
	<g>
		<path d="M189.158,194.585c-2.928-2.929-7.677-2.929-10.606,0l-17.005,17.005c-3.125,3.126-7.281,4.847-11.702,4.847
			c-4.142,0-7.5,3.358-7.5,7.5c0,4.142,3.358,7.499,7.5,7.499c8.427,0,16.35-3.282,22.308-9.24l17.005-17.005
			C192.087,202.262,192.087,197.514,189.158,194.585z"/>
	</g>
</g>
<g>
	<g>
		<path d="M213.205,274.748l-17.003-17.007c-5.958-5.959-13.881-9.24-22.308-9.24h-66.875l2.915-4.372
			c1.284-1.926,1.607-4.336,0.875-6.532l-2.053-6.16h12.179c4.142,0,7.5-3.358,7.5-7.5c0-4.142-3.358-7.5-7.5-7.5h-17.179
			l-0.609-1.826l12.722-8.482c3.447-2.298,4.378-6.954,2.08-10.401c-2.297-3.447-6.955-4.377-10.4-2.08L89.56,205.641
			c-2.727,1.818-5.901,2.78-9.179,2.78H7.5c-4.142,0-7.5,3.358-7.5,7.5c0,4.142,3.358,7.5,7.5,7.5h72.88
			c3.22,0,6.385-0.495,9.411-1.441l5.627,16.882L81.42,259.858c-1.493,2.239-1.671,5.107-0.468,7.514l10.605,21.21H7.5
			c-4.142,0-7.5,3.358-7.5,7.5c0,4.142,3.358,7.5,7.5,7.5h89.553c2.279,0,4.421,0.887,6.033,2.499l11.336,11.336
			c1.464,1.465,3.384,2.197,5.303,2.197c1.919,0,3.839-0.732,5.303-2.197c2.929-2.929,2.929-7.677,0-10.606l-11.245-11.245h20.029
			c4.42,0,8.576,1.721,11.702,4.847l25.021,25.021c1.464,1.465,3.384,2.197,5.303,2.197c1.919,0,3.839-0.732,5.303-2.197
			c2.929-2.929,2.929-7.677,0-10.606l-25.021-25.021c-5.959-5.959-13.881-9.24-22.308-9.24H104.32l-8.005-16.01l0.703-1.055h76.874
			c4.42,0,8.576,1.721,11.702,4.847l17.005,17.005c1.464,1.465,3.384,2.197,5.303,2.197c1.919,0,3.839-0.732,5.303-2.197
			C216.134,282.425,216.134,277.676,213.205,274.748z"/>
	</g>
</g>
<g>
	<g>
		<path d="M504.5,288.581h-72.145c-3.22,0-6.385,0.495-9.412,1.441l-5.628-16.882l13.998-20.996
			c1.493-2.239,1.671-5.107,0.468-7.514l-10.605-21.21H504.5c4.142,0,7.5-3.358,7.5-7.5c0-4.142-3.358-7.5-7.5-7.5h-88.818
			c-2.279,0-4.421-0.888-6.033-2.499l-11.336-11.336c-2.929-2.929-7.678-2.929-10.606,0c-2.929,2.929-2.929,7.677,0,10.606
			l11.245,11.245h-20.029c-4.42,0-8.576-1.721-11.702-4.847L342.2,186.568c-2.929-2.929-7.678-2.929-10.606,0
			c-2.929,2.929-2.929,7.678,0,10.607l25.021,25.021c5.959,5.959,13.881,9.24,22.308,9.24h29.492l8.005,16.01l-0.703,1.055h-76.874
			c-4.42,0-8.576-1.721-11.702-4.847l-17.005-17.005c-2.929-2.929-7.678-2.929-10.606,0c-2.929,2.929-2.929,7.678,0,10.606
			l17.005,17.005c5.959,5.959,13.881,9.24,22.308,9.24h66.875l-2.915,4.372c-1.284,1.926-1.607,4.336-0.875,6.532l2.053,6.16
			h-13.124c-4.142,0-7.5,3.358-7.5,7.5c0,4.142,3.358,7.5,7.5,7.5h18.124l0.609,1.826l-12.722,8.482
			c-3.446,2.298-4.377,6.954-2.08,10.401c1.445,2.168,3.823,3.341,6.247,3.34c1.43,0,2.875-0.408,4.154-1.26l17.988-11.993
			c2.728-1.819,5.902-2.78,9.18-2.78H504.5c4.142,0,7.5-3.358,7.5-7.5C512,291.938,508.642,288.581,504.5,288.581z"/>
	</g>
</g>
<g>
	<g>
		<path d="M362.889,280.565c-8.427,0-16.349,3.281-22.308,9.24l-17.004,17.005c-2.929,2.929-2.929,7.678,0,10.606
			c1.464,1.465,3.384,2.197,5.303,2.197s3.839-0.732,5.303-2.197l17.004-17.004c3.126-3.126,7.282-4.847,11.702-4.847
			c4.142,0,7.5-3.358,7.5-7.5C370.389,283.923,367.031,280.565,362.889,280.565z"/>
	</g>
</g>
<g>
	<g>
		<path d="M288.192,251.282c-2.838-4.053-7.488-6.473-12.435-6.473h-39.514c-0.061,0-0.094,0-0.148-0.077
			c-0.054-0.077-0.042-0.108-0.022-0.165l26.975-74.181c1.416-3.893-0.592-8.196-4.485-9.611c-3.894-1.417-8.196,0.592-9.611,4.485
			l-26.975,74.181c-1.691,4.649-1.005,9.844,1.833,13.897c2.838,4.052,7.486,6.471,12.434,6.471h39.514c0.061,0,0.094,0,0.148,0.077
			c0.054,0.077,0.042,0.109,0.022,0.166l-18.824,51.765l-0.445-2.972c-0.613-4.096-4.425-6.917-8.528-6.307
			c-4.097,0.613-6.92,4.431-6.307,8.528l5.123,34.223c0.422,2.819,2.406,5.156,5.12,6.029c0.754,0.243,1.529,0.361,2.297,0.361
			c1.994,0,3.944-0.796,5.378-2.272l24.122-24.811c2.887-2.97,2.82-7.718-0.149-10.605c-2.969-2.887-7.717-2.821-10.605,0.149
			l-1.42,1.461l18.335-50.422C291.716,260.53,291.03,255.335,288.192,251.282z"/>
	</g>
</g>
<g>
</g>
<g>
</g>
<g>
</g>
<g>
</g>
<g>
</g>
<g>
</g>
<g>
</g>
<g>
</g>
<g>
</g>
<g>
</g>
<g>
</g>
<g>
</g>
<g>
</g>
<g>
</g>
<g>
</g>
</svg>
